<!DOCTYPE svg PUBLIC "-//W3C//DTD SVG 1.1//EN" "http://www.w3.org/Graphics/SVG/1.1/DTD/svg11.dtd">
<!-- Uploaded to: SVG Repo, www.svgrepo.com, Transformed by: SVG Repo Mixer Tools -->
<svg fill="#05DF72" height="800px" width="800px" version="1.1" id="Layer_1" xmlns="http://www.w3.org/2000/svg" xmlns:xlink="http://www.w3.org/1999/xlink" viewBox="-51.2 -51.2 614.40 614.40" xml:space="preserve" transform="matrix(-1, 0, 0, 1, 0, 0)rotate(0)" stroke="#05DF72" stroke-width="0.0051200099999999995">
<g id="SVGRepo_bgCarrier" stroke-width="0" transform="translate(0,0), scale(1)">
<path transform="translate(-51.2, -51.2), scale(38.4)" fill="#800080" d="M9.166.33a2.25 2.25 0 00-2.332 0l-5.25 3.182A2.25 2.25 0 00.5 5.436v5.128a2.25 2.25 0 001.084 1.924l5.25 3.182a2.25 2.25 0 002.332 0l5.25-3.182a2.25 2.25 0 001.084-1.924V5.436a2.25 2.25 0 00-1.084-1.924L9.166.33z" strokewidth="0"/>
</g>
<g id="SVGRepo_tracerCarrier" stroke-linecap="round" stroke-linejoin="round" stroke="#FFFFFF" stroke-width="6.144011999999999"/>
<g id="SVGRepo_iconCarrier"> <path d="M512.001,277.478c0-13.957-3.711-27.616-10.536-39.048v-47.556c0-58.26-46.879-106.114-104.501-106.672 c-0.351-0.004-0.7-0.005-1.051-0.005c-58.153,0-105.531,47.186-105.531,105.541v131.977c0,3.506-2.596,6.456-5.786,6.576 c-3.434,0.134-6.278-2.642-6.278-6.026v-131.39c0-58.26-46.879-106.114-104.501-106.672 C115.281,83.61,67.234,130.957,67.234,189.737v16.505H16.341c-6.355,0-12.135,3.685-14.816,9.448 c-2.681,5.763-1.777,12.557,2.318,17.419l46.272,54.939c9.476,11.251,23.348,17.704,38.059,17.704h28.197 c0.258,0.003,0.511,0.003,0.72,0.003c27.38-0.041,49.655-22.362,49.655-49.759v-65.708c0-3.507,2.596-6.457,5.787-6.578 c3.439-0.134,6.278,2.647,6.278,6.026v131.39c0,58.261,46.88,106.115,104.504,106.672c0.351,0.004,0.7,0.005,1.051,0.005 c58.26,0,105.528-47.288,105.528-105.541V190.288c0-3.507,2.596-6.457,5.787-6.578c3.474-0.135,6.278,2.679,6.278,6.026v48.693 c-6.825,11.432-10.536,25.091-10.536,39.048c0,31.581,18.624,58.257,43.951,66.436v40.33c0,9.024,7.316,16.34,16.34,16.34 c9.024,0,16.34-7.316,16.34-16.34v-40.33C493.378,335.735,512.001,309.059,512.001,277.478z"/> </g>
</svg>